<?xml version="1.0" encoding="UTF-8"?><svg id="Layer_2" xmlns="http://www.w3.org/2000/svg" viewBox="0 0 225.67 225.67"><defs><style>.cls-1{fill:#fff;}.cls-2{stroke:#fff;stroke-miterlimit:10;stroke-width:2px;}</style></defs><g id="Layer_1-2"><g><rect class="cls-1" x="26.67" y="26.67" width="172.34" height="172.34" rx="21.79" ry="21.79" transform="translate(-46.74 112.83) rotate(-45)"/><g><polygon points="112.83 102.7 72.48 134.93 67.37 127.74 112.83 97.59 112.83 102.7"/><polygon points="112.83 102.7 153.19 134.93 158.29 127.74 112.83 97.59 112.83 102.7"/><path class="cls-2" d="M81.48,148.09l-10.23,5.18c-2.3,1.16-5.86-1.32-7.81-5.46l-20.24-42.87c-1.82-3.86-1.57-7.74,.58-8.83l7.38-3.73c2.11-1.07,5.33,.94,7.38,4.61l23.09,41.43c2.26,4.05,2.19,8.5-.14,9.68Z"/><path class="cls-2" d="M144.89,148.45l8.81,4.46c1.98,1,5.29-1.61,7.26-5.74l20.4-42.79c1.84-3.85,1.82-7.61-.03-8.55l-6.36-3.22c-1.82-.92-4.8,1.21-6.82,4.89l-22.86,41.54c-2.23,4.06-2.42,8.38-.41,9.4Z"/><path class="cls-2" d="M108,73.91l-5.91,59.8c-.28,2.86,1.96,5.34,4.84,5.34h11.81c2.87,0,5.12-2.48,4.84-5.34l-5.91-59.8c-.58-5.84-9.1-5.84-9.67,0Z"/></g></g></g></svg>