<?xml version="1.0" encoding="UTF-8"?><svg id="Layer_2" xmlns="http://www.w3.org/2000/svg" viewBox="0 0 177.67 177.67"><defs><style>.cls-1{stroke:#fff;stroke-miterlimit:10;stroke-width:3px;}.cls-2{fill:#fff;}</style></defs><g id="Layer_1-2"><rect class="cls-2" x="20.99" y="20.99" width="135.68" height="135.68" rx="17.16" ry="17.16" transform="translate(-36.8 88.83) rotate(-45)"/><g><path d="M77.66,96.96l-2.04-17.15c-.22-1.82,.67-3.5,1.85-3.5h4.07c1.18,0,2.07,1.68,1.85,3.5l-2.04,17.15c-.38,3.22-3.32,3.22-3.7,0Z"/><path d="M95.09,96.96l-2.04-17.15c-.22-1.82,.67-3.5,1.85-3.5h4.07c1.18,0,2.07,1.68,1.85,3.5l-2.04,17.15c-.38,3.22-3.32,3.22-3.7,0Z"/><polygon points="89.11 38.14 39.29 120.47 88.95 65.96 89.11 38.14"/><polygon points="88.95 38.14 138.77 120.47 89.11 65.96 88.95 38.14"/><path class="cls-1" d="M86.44,38.09l-6.16,40.03c-.39,2.56,.84,5.02,2.52,5.02h12.31c1.68,0,2.91-2.46,2.52-5.02l-6.16-40.03c-.64-4.15-4.39-4.15-5.03,0Z"/></g></g></svg>