<?xml version="1.0" encoding="utf-8"?>
<!-- Generator: Adobe Illustrator 26.4.0, SVG Export Plug-In . SVG Version: 6.00 Build 0)  -->
<svg version="1.1" id="earth" xmlns="http://www.w3.org/2000/svg" xmlns:xlink="http://www.w3.org/1999/xlink" x="0px" y="0px"
	 viewBox="0 0 200 200" style="enable-background:new 0 0 200 200;" xml:space="preserve">
<style type="text/css">
	.st0{fill:#2E2DAA;}
	.st1{fill:#58BD78;}
	.st2{opacity:0.1;enable-background:new    ;}
	.st3{opacity:0.21;fill:none;stroke:#FFFFFF;stroke-width:7;stroke-linecap:round;stroke-miterlimit:10;enable-background:new    ;}
</style>
<g id="earth-2">
	<path class="st0" d="M200,100c0,22.9-7.7,44.1-20.7,60.9C161,184.7,132.3,200,100,200c-16.4,0-31.8-3.9-45.4-10.9
		c-0.5-0.3-1.1-0.6-1.6-0.8c-0.5-0.3-1-0.5-1.5-0.8c-0.7-0.4-1.3-0.7-2-1.1c-0.4-0.2-0.8-0.5-1.2-0.7c-0.1-0.1-0.2-0.1-0.3-0.2
		c-0.4-0.3-0.9-0.6-1.3-0.8c-1.7-1.1-3.4-2.2-5.1-3.4c-0.6-0.4-1.1-0.8-1.7-1.2c-10.8-8.1-19.8-18.3-26.6-30
		c-2.8-4.8-5.2-9.9-7.2-15.2C2.2,124,0,112.2,0,100c0-25.1,9.3-48.1,24.6-65.7C42.9,13.3,69.9,0,100,0c4.9,0,9.7,0.3,14.4,1
		c2.3,0.3,4.5,0.7,6.8,1.2c0.4,0.1,0.7,0.2,1.1,0.2c0.4,0.1,0.7,0.2,1.1,0.3c0.4,0.1,0.8,0.2,1.2,0.3c0.6,0.1,1.1,0.3,1.6,0.4
		c0.4,0.1,0.8,0.2,1.3,0.3c0.4,0.1,0.8,0.2,1.2,0.3c3,0.9,5.9,1.9,8.8,3.1c0.5,0.2,0.9,0.4,1.4,0.6c0.3,0.1,0.6,0.2,0.9,0.4
		c0.5,0.2,1,0.4,1.5,0.6c3,1.3,5.9,2.8,8.7,4.4c0.5,0.3,1.1,0.6,1.6,0.9c0.6,0.3,1.1,0.7,1.6,1c1,0.6,2,1.3,3,1.9
		c0.5,0.3,1,0.7,1.5,1l0,0c1.1,0.8,2.2,1.6,3.3,2.4c0.5,0.4,0.9,0.7,1.4,1.1c0.4,0.3,0.9,0.7,1.3,1.1c0.1,0.1,0.2,0.2,0.3,0.3
		c0.4,0.3,0.8,0.7,1.2,1c0.5,0.4,0.9,0.8,1.4,1.2c1.4,1.2,2.7,2.5,4,3.8c0.4,0.4,0.8,0.8,1.2,1.2c1.2,1.3,2.4,2.6,3.6,3.9
		c0.3,0.3,0.6,0.7,0.9,1c0.4,0.4,0.7,0.8,1.1,1.3c0.4,0.5,0.8,0.9,1.2,1.4c0.3,0.4,0.6,0.8,0.9,1.2c0.9,1.2,1.8,2.4,2.6,3.6l0,0
		c0.4,0.6,0.8,1.2,1.2,1.8c0.3,0.4,0.6,0.9,0.9,1.3c2.3,3.5,4.3,7.1,6.1,10.9l0.6,1.3c0.4,0.9,0.8,1.8,1.2,2.7
		c0.2,0.5,0.4,0.9,0.6,1.4c0.4,1,0.8,2.1,1.2,3.1C197.8,75.9,200,87.7,200,100L200,100z"/>
	<path class="st1" d="M83.4,115.3c0,10.8-8.8,19.5-19.6,19.5H6.2C2.2,124,0,112.2,0,100c0-25.1,9.3-48.1,24.6-65.7h25.5
		c1.9,0,3.7,0.3,5.4,0.8c3.2,0.9,6.1,2.7,8.4,4.9c3.5,3.5,5.7,8.4,5.7,13.8c0,10.8-8.7,19.5-19.5,19.5h-2.8c-3.1,0-5.9,1.2-7.9,3.3
		c-2,2-3.3,4.8-3.3,7.9c0,6.2,5,11.2,11.2,11.2h16.6c5.4,0,10.3,2.2,13.8,5.7S83.4,109.9,83.4,115.3L83.4,115.3z"/>
	<path class="st1" d="M83.4,169.6c0,2.7-0.6,5.3-1.6,7.6c-1,2.3-2.4,4.4-4.2,6.2c-3.5,3.5-8.4,5.7-13.8,5.7h-9.3
		c-0.5-0.3-1.1-0.6-1.6-0.8c-0.5-0.3-1-0.5-1.5-0.8c-0.7-0.4-1.3-0.7-2-1.1c-0.4-0.2-0.8-0.5-1.2-0.7c-0.1-0.1-0.2-0.1-0.3-0.2
		c-0.4-0.3-0.9-0.6-1.3-0.8c-1.7-1.1-3.4-2.2-5.1-3.4c-0.6-0.4-1.1-0.8-1.7-1.2c-10.8-8.1-19.8-18.3-26.6-30h50.5
		C74.7,150,83.4,158.8,83.4,169.6L83.4,169.6z"/>
	<path class="st1" d="M200,100c0,22.9-7.7,44.1-20.7,60.9h-14.6c-5.4,0-10.3-2.2-13.8-5.7c-3.5-3.5-5.7-8.4-5.7-13.8
		c0-8,4.8-14.9,11.7-17.9c3.2-1.4,5.2-4.6,5.2-8.1V113c0-4.9-4-8.9-8.9-8.9h-5.4c-5.4,0-10.3-2.2-13.8-5.7
		c-3.5-3.5-5.7-8.4-5.7-13.8c0-10.8,8.8-19.5,19.5-19.5h45.9C197.8,75.9,200,87.7,200,100L200,100z"/>
	<path class="st2" d="M200,100c0,22.9-7.7,44.1-20.7,60.9C161,184.7,132.3,200,100,200c-16.4,0-31.8-3.9-45.4-10.9
		c-0.5-0.3-1.1-0.6-1.6-0.8c-0.5-0.3-1-0.5-1.5-0.8c-0.7-0.4-1.3-0.7-2-1.1c-0.4-0.2-0.8-0.5-1.2-0.7c-0.1-0.1-0.2-0.1-0.3-0.2
		c-0.4-0.3-0.9-0.6-1.3-0.8c-1.7-1.1-3.4-2.2-5.1-3.4c-0.6-0.4-1.1-0.8-1.7-1.2c4.7,0.7,9.5,1,14.4,1c9.5,0,18.7-1.3,27.5-3.8
		c20.9-5.9,38.9-18.5,51.8-35.2c8.5-11,14.7-23.9,18-37.9c1.8-7.4,2.7-15.1,2.7-23.1c0-5.5-0.4-10.8-1.3-16c-1.1-6.6-2.8-12.9-5-19
		c-6.7-18-18.5-33.6-33.7-45c2.3,0.3,4.5,0.7,6.8,1.2c0.4,0.1,0.7,0.2,1.1,0.2c0.4,0.1,0.7,0.2,1.1,0.3c0.4,0.1,0.8,0.2,1.2,0.3
		c0.6,0.1,1.1,0.3,1.6,0.4c0.4,0.1,0.8,0.2,1.3,0.3c0.4,0.1,0.8,0.2,1.2,0.3c3,0.9,5.9,1.9,8.8,3.1c0.5,0.2,0.9,0.4,1.4,0.6
		c0.3,0.1,0.6,0.2,0.9,0.4c0.5,0.2,1,0.4,1.5,0.6c3,1.3,5.9,2.8,8.7,4.4c0.5,0.3,1.1,0.6,1.6,0.9c0.6,0.3,1.1,0.7,1.6,1
		c1,0.6,2,1.3,3,1.9c0.5,0.3,1,0.7,1.5,1l0,0c1.1,0.8,2.2,1.6,3.3,2.4c0.5,0.4,0.9,0.7,1.4,1.1c0.4,0.3,0.9,0.7,1.3,1.1
		c0.1,0.1,0.2,0.2,0.3,0.3c0.4,0.3,0.8,0.7,1.2,1c0.5,0.4,0.9,0.8,1.4,1.2c1.4,1.2,2.7,2.5,4,3.8c0.4,0.4,0.8,0.8,1.2,1.2
		c1.2,1.3,2.4,2.6,3.6,3.9c0.3,0.3,0.6,0.7,0.9,1c0.4,0.4,0.7,0.8,1.1,1.3c0.4,0.5,0.8,0.9,1.2,1.4c0.3,0.4,0.6,0.8,0.9,1.2
		c0.9,1.2,1.8,2.4,2.6,3.6l0,0c0.4,0.6,0.8,1.2,1.2,1.8c0.3,0.4,0.6,0.9,0.9,1.3c2.3,3.5,4.3,7.1,6.1,10.9l0.6,1.3
		c0.4,0.9,0.8,1.8,1.2,2.7c0.2,0.5,0.4,0.9,0.6,1.4c0.4,1,0.8,2.1,1.2,3.1C197.8,75.9,200,87.7,200,100L200,100z"/>
	<path class="st3" d="M89.7,18.1c-8.3,2.2-28.6,8.6-45.7,27.6c-21.3,23.6-23.3,50.7-23.7,58.6"/>
</g>
</svg>
