<?xml version="1.0" encoding="UTF-8"?><svg id="Layer_2" xmlns="http://www.w3.org/2000/svg" viewBox="0 0 225.67 225.67"><defs><style>.cls-1{fill:#fff;}.cls-2{stroke:#fff;stroke-miterlimit:10;stroke-width:2px;}</style></defs><g id="Layer_1-2"><rect class="cls-1" x="26.67" y="26.67" width="172.34" height="172.34" rx="21.79" ry="21.79" transform="translate(-46.74 112.83) rotate(-45)"/><g><g><polygon class="cls-1" points="112.31 160.52 55.15 108.46 112.83 48.27 112.31 160.52"/><polygon points="104.56 169.02 51.34 112.65 47.09 108.15 51.06 104.54 112.83 48.27 59.24 112.38 58.97 104.27 120.05 152.01 104.56 169.02 104.56 169.02"/></g><g><polyline class="cls-1" points="112.83 68.31 170.52 104.56 112.31 160.52"/><path d="M112.83,68.31c2.69,1.4,65.76,34.29,66.46,34.66l-4.98,5.55-54.05,60.29-15.94-16.58,62.37-51.63,.88,8.61-54.76-40.9h0Z"/></g><path class="cls-2" d="M108.48,116.06l-9.16,48.27c-.52,2.71,1,5.36,3.08,5.36h18.33c2.07,0,3.59-2.64,3.08-5.36l-9.16-48.27c-.82-4.3-5.34-4.3-6.15,0Z"/></g></g></svg>