<?xml version="1.0" encoding="UTF-8"?>
<svg xmlns="http://www.w3.org/2000/svg" viewBox="0 0 736.47 692.23">
  <g id="_06" data-name="006">
    <g>
      <path d="M266.37,469.13h31.12c6.39,0,11.57,5.18,11.57,11.57v143.84c0,6.39-5.18,11.57-11.57,11.57h-6.47c-19.99,0-36.22-16.23-36.22-36.22v-119.19c0-6.39,5.18-11.57,11.57-11.57Z" style="fill: #e01d1b;"/>
      <path d="M304.65,630.65c-20,0-36.22-16.22-36.22-36.22v-119.19c0-2.25,.65-4.34,1.76-6.12h-3.83c-6.39,0-11.57,5.18-11.57,11.57v119.19c0,20,16.22,36.22,36.22,36.22h6.47c3.13,0,5.97-1.25,8.05-3.27,.82-.79,.26-2.18-.88-2.18h0Z" style="fill: #c20100;"/>
      <path d="M297.49,469.13h-1.22c2.01,2.08,3.25,4.91,3.25,8.02v143.84c0,6.39-5.18,11.57-11.57,11.57h-6.55c-1.29,0-1.57,1.81-.32,2.16,3.16,.9,6.5,1.38,9.95,1.38h6.47c6.39,0,11.57-5.18,11.57-11.57v-143.84c0-6.39-5.18-11.57-11.57-11.57Z" style="fill: #fa3432;"/>
      <path d="M296.71,599.29v47.94c0,26.45-4.89,45-10.9,45-.11,0-.22-.01-.33-.02v-97.57c1.67-.56,3.48-.87,5.36-.87,1.62,0,3.09,.62,4.16,1.62,1.06,1,1.72,2.38,1.72,3.9Z" style="fill: #f5c60c;"/>
      <path d="M285.48,594.64v97.57c-5.88-.66-10.58-18.75-10.58-44.98v-38.52c0-6.49,4.42-12.01,10.58-14.07Z" style="fill: #d1a90a;"/>
      <path d="M309.06,407.47c-.29,.03-6.4,12.38-8.68,13.6-31.25,16.65-232.54,130.22-290.34,163.68-8.67,5.02-12.31,15.65-8.56,24.93l23.44,57.95c.94,2.32,4.35,1.84,4.62-.64l6.31-58.43,260.98-101.4c7.38-2.87,12.24-9.97,12.24-17.88v-81.82Z" style="fill: #e01d1b;"/>
      <path d="M300.32,505.81L35.84,608.57l273.1-141.34,.09,25.81c.02,5.65-3.44,10.72-8.7,12.77Z" style="fill: #a31514;"/>
      <rect x="107.48" y="572.64" width="7.64" height="26.73" rx="3.82" ry="3.82" style="fill: #404040;"/>
      <rect x="134.72" y="559.27" width="7.64" height="26.73" rx="3.82" ry="3.82" style="fill: #404040;"/>
      <rect x="161.96" y="548.89" width="7.64" height="26.73" rx="3.82" ry="3.82" style="fill: #404040;"/>
      <rect x="189.2" y="537.9" width="7.64" height="26.73" rx="3.82" ry="3.82" style="fill: #404040;"/>
      <rect x="216.44" y="524.54" width="7.64" height="26.73" rx="3.82" ry="3.82" style="fill: #404040;"/>
      <path d="M30.24,660.39l-.71,6.6c-.27,2.49-3.68,2.96-4.62,.65L1.47,609.69c-2.3-5.69-1.82-11.88,.88-16.98l27.89,67.68Z" style="fill: #a31514;"/>
    </g>
    <g>
      <path d="M463.63,468.17h6.47c6.39,0,11.57,5.18,11.57,11.57v143.84c0,6.39-5.18,11.57-11.57,11.57h-31.12c-6.39,0-11.57-5.18-11.57-11.57v-119.19c0-19.99,16.23-36.22,36.22-36.22Z" transform="translate(909.09 1103.31) rotate(180)" style="fill: #e01d1b;"/>
      <path d="M431.82,629.69c20,0,36.22-16.22,36.22-36.22v-119.19c0-2.25-.65-4.34-1.76-6.12h3.83c6.39,0,11.57,5.18,11.57,11.57v119.19c0,20-16.22,36.22-36.22,36.22h-6.47c-3.13,0-5.97-1.25-8.05-3.27-.82-.79-.26-2.18,.88-2.18h0Z" style="fill: #fa3432;"/>
      <path d="M438.98,468.17h1.22c-2.01,2.08-3.25,4.91-3.25,8.02v143.84c0,6.39,5.18,11.57,11.57,11.57h6.55c1.29,0,1.57,1.81,.32,2.16-3.16,.9-6.5,1.38-9.95,1.38h-6.47c-6.39,0-11.57-5.18-11.57-11.57v-143.84c0-6.39,5.18-11.57,11.57-11.57Z" style="fill: #c20100;"/>
      <path d="M439.76,598.33v47.94c0,26.45,4.89,45,10.9,45,.11,0,.22-.01,.33-.02v-97.57c-1.67-.56-3.48-.87-5.36-.87-1.62,0-3.09,.62-4.16,1.62-1.06,1-1.72,2.38-1.72,3.9Z" style="fill: #f5c60c;"/>
      <path d="M451,593.68v97.57c5.88-.66,10.58-18.75,10.58-44.98v-38.52c0-6.49-4.42-12.01-10.58-14.07Z" style="fill: #d1a90a;"/>
      <path d="M427.41,406.51c.29,.03,6.4,12.38,8.68,13.6,31.25,16.65,232.54,130.22,290.34,163.68,8.67,5.02,12.31,15.65,8.56,24.93l-23.44,57.95c-.94,2.32-4.35,1.84-4.62-.64l-6.31-58.43-259.08-100.66c-8.52-3.31-14.14-11.52-14.14-20.66v-79.77Z" style="fill: #e01d1b;"/>
      <path d="M435.35,504.54l265.28,103.08-273.1-141.34-.09,26.67c-.02,5.13,3.13,9.74,7.91,11.6Z" style="fill: #a31514;"/>
      <rect x="621.35" y="571.68" width="7.64" height="26.73" rx="3.82" ry="3.82" transform="translate(1250.34 1170.08) rotate(180)" style="fill: #404040;"/>
      <rect x="594.11" y="558.31" width="7.64" height="26.73" rx="3.82" ry="3.82" transform="translate(1195.87 1143.36) rotate(180)" style="fill: #404040;"/>
      <rect x="566.88" y="547.93" width="7.64" height="26.73" rx="3.82" ry="3.82" transform="translate(1141.39 1122.59) rotate(180)" style="fill: #404040;"/>
      <rect x="539.64" y="536.94" width="7.64" height="26.73" rx="3.82" ry="3.82" transform="translate(1086.91 1100.61) rotate(-180)" style="fill: #404040;"/>
      <rect x="512.4" y="523.58" width="7.64" height="26.73" rx="3.82" ry="3.82" transform="translate(1032.43 1073.88) rotate(-180)" style="fill: #404040;"/>
      <path d="M706.23,659.43l.71,6.6c.27,2.49,3.68,2.96,4.62,.65l23.44-57.95c2.3-5.69,1.82-11.88-.88-16.98l-27.89,67.68Z" style="fill: #a31514;"/>
    </g>
    <path d="M350.38,356.99h36.87c22.65,0,41.04,18.39,41.04,41.04v113.61c0,11.89-9.65,21.54-21.54,21.54h-75.88c-11.89,0-21.54-9.65-21.54-21.54v-113.61c0-22.65,18.39-41.04,41.04-41.04Z" style="fill: #b81816;"/>
    <path d="M394.86,356.99h-52.09c-8.51,0-16.27,4.31-22.17,11.4,2.89-1.1,5.93-1.7,9.08-1.7h52.09c18.47,0,33.44,20.27,33.44,45.27v112.06c0,3.33-.64,6.45-1.76,9.17h.92c7.69,0,13.93-8.45,13.93-18.86v-112.06c0-25-14.97-45.27-33.44-45.27Z" style="fill: #d11c19;"/>
    <path d="M335.73,521.91c-7.69,0-13.93-1.97-13.93-12.39v-112.06c0-17.58,7.41-32.81,18.22-40.31-17.18,1.9-30.68,21.36-30.68,45.11v112.06c0,10.42,6.24,18.86,13.93,18.86h91.1c9.59,.3,11.01-7.65,12.77-11.27h-91.4Z" style="fill: #991412;"/>
  </g>
  <g id="_05" data-name="005">
    <path d="M361.93,2.82l-37.16,283.43,43.54,51.95V3.24c0-4.04-5.85-4.44-6.38-.43Z" style="fill: #686868;"/>
    <path d="M374.69,2.82l37.16,283.43-43.54,51.95V3.24c0-4.04,5.85-4.44,6.38-.43Z" style="fill: #757575;"/>
    <path d="M368.31,338.2h0l43.54-51.95L374.69,2.82c-.33-2.52-2.77-3.3-4.53-2.54l35.21,284.96-37.06,52.96Z" style="fill: #7d7d7d;"/>
    <path d="M368.31,338.2h0l-43.54-51.95L361.93,2.82c.33-2.52,2.77-3.3,4.53-2.54l-35.21,284.96,37.06,52.96Z" style="fill: #5c5c5c;"/>
    <path d="M368.31,334.51h13.14c8.53,0,15.27-6.12,14.68-13.33,0,0-6.72-126.78-27.82-126.78" style="fill: #f5c60c;"/>
    <path d="M368.31,334.51h-13.14c-8.53,0-15.27-6.12-14.68-13.33,0,0,6.72-126.78,27.82-126.78" style="fill: #c9a30a;"/>
    <path d="M404.07,273.91l-35.76,53.06-35.76-53.06c-2.16-3.21-6.42-2.15-7.35,1.84l-3.23,13.79c-3.54,15.11-4.38,30.96-2.46,46.49l5.27,42.52c1.63,13.12,9.07,24.1,19.4,28.59l14.03,6.11c6.53,2.85,13.68,2.85,20.22,0l14.03-6.11c10.32-4.49,17.77-15.47,19.4-28.59l5.27-42.52c1.92-15.53,1.09-31.38-2.46-46.49l-3.23-13.79c-.93-3.98-5.19-5.04-7.35-1.84Z" style="fill: #e8e8e8;"/>
    <path d="M380.03,412.54l-1.61,.7c-6.53,2.85-13.68,2.85-20.22,0l-14.03-6.1c-10.32-4.5-17.77-15.48-19.39-28.6l-5.27-42.52c-1.93-15.53-1.09-31.38,2.46-46.49l3.23-13.78c.93-3.98,5.19-5.05,7.35-1.84l1.62,2.4c-5.02,11.6-6.35,24.92-6.69,37.73-.43,16.23,.38,32.5,2.45,48.6,1.17,9.18,2.84,18.56,7.66,26.46,5.72,9.36,15.43,15.76,25.78,19.42,5.4,1.92,10.99,3.15,16.66,4.02Z" style="fill: #d9d9d9;"/>
    <path d="M356.59,412.54l1.61,.7c6.53,2.85,13.68,2.85,20.22,0l14.03-6.1c10.32-4.5,17.77-15.48,19.39-28.6l5.27-42.52c1.93-15.53,1.09-31.38-2.46-46.49l-3.23-13.78c-.93-3.98-5.19-5.05-7.35-1.84l-1.62,2.4c5.02,11.6,6.35,24.92,6.69,37.73,.43,16.23-.38,32.5-2.45,48.6-1.17,9.18-2.84,18.56-7.66,26.46-5.72,9.36-15.43,15.76-25.78,19.42-5.4,1.92-10.99,3.15-16.66,4.02Z" style="fill: #fff;"/>
  </g>
  <g id="_04" data-name="004">
    <rect x="339.86" y="451.8" width="10.26" height="39.24" style="fill: #c7c7c7;"/>
    <rect x="386.5" y="451.8" width="10.26" height="39.24" style="fill: #c7c7c7;"/>
    <g>
      <path d="M402.2,530.26l-33.96,4.23-33.96-4.23s-1.67,3.41-1.67,25.84c0,4.43,22.91,22.7,35.63,22.7s35.63-18.27,35.63-22.7c0-22.43-1.67-25.84-1.67-25.84Z" style="fill: #dedede;"/>
      <path d="M368.03,595.64c-11.45,0-33.4-31.45-30.51-34.36,1.96-1.97,16.05,2.66,30.72,2.66,15.46,0,28.75-4.23,30.31-2.66,4.97,5-19.06,34.36-30.51,34.36Z" style="fill: #83deb7;"/>
      <path d="M368.01,603.62c-12.55,0-36.62-34.27-33.45-37.44,2.15-2.15,17.59,5.81,33.68,5.81,16.95,0,31.52-7.53,33.23-5.81,5.45,5.45-20.9,37.44-33.45,37.44Z" style="fill: #dedede;"/>
    </g>
    <g>
      <path d="M409.82,527.97c-1.67-6.49-5.04-11.26-7.84-14.35-.38-.42-.59-.95-.59-1.51v-19.21c0-12.42-10.07-22.49-22.49-22.49h-18.19c-14.07,0-25.47,11.4-25.47,25.47v16.23c0,.56-.22,1.1-.59,1.51-2.8,3.09-6.17,7.86-7.84,14.35-.51,1.98-4.14,16.11,4.27,25.27,3.81,4.15,10.2,7.4,12.47,5.58,2.8-2.25-4.43-9.25-3.61-21.99,.08-1.19,.22-2.31,.39-3.36,.23-1.4,1.72-2.22,3.03-1.67,4.84,2.03,12.58,3.66,24.96,3.66s20.12-1.62,24.96-3.66c1.31-.55,2.8,.27,3.03,1.67,.17,1.06,.31,2.17,.39,3.36,.82,12.74-6.41,19.74-3.61,21.99,2.27,1.82,8.66-1.43,12.47-5.58,8.41-9.16,4.77-23.29,4.27-25.27Z" style="fill: #2131af;"/>
      <path d="M405.55,553.24c-3.88,4.44-9.75,7.08-11.04,5.83-1.03-1,1.59-3.82,3.53-10.79,.53-1.9,3.78-13.61-.78-16.96-.06-.05-.13-.09-.19-.13-.66-.43-1.49-.49-2.19-.13-3.25,1.64-8.12,3.12-15.45,3.88-5.96,.61-11.13-4.12-11.13-10.11v-54.42h11.34c12.01,0,21.74,9.73,21.74,21.74v19.96c0,.56,.22,1.09,.59,1.51,2.8,3.1,6.19,7.92,8.06,15.21,.54,2.1,3.37,15.44-4.48,24.42Z" style="fill: #3849c9;"/>
      <path d="M368.3,513.56v47.66c-3.43,0-6.33-2.91-6.72-6.77l-3.34-32.34c-.47-4.55,2.67-8.55,6.73-8.55h3.33Z" style="fill: #2131af;"/>
      <path d="M368.31,513.56v47.66c3.43,0,6.33-2.91,6.72-6.77l3.34-32.34c.47-4.55-2.67-8.55-6.73-8.55h-3.33Z" style="fill: #3849c9;"/>
      <path d="M342.27,555.33c-1.44-.2-3.01-.26-4.81-1.14-9.93-4.87-7.51-23.67-7.36-24.82,.7-5.43,2.89-11.23,3.07-11.69,.96-2.51,.85-3.8,2-4.57,.64-.43,1.23-.49,2.08-1.21,1.03-.87,1.48-1.91,1.69-2.4,1.87-4.42,1.59-10.23,1.59-10.23s-.49-7.58,4.3-15.75c6.23-10.62,19.81-11.52,19.38-12.99-.25-.85-4.49-.41-7.21,.13-3.08,.61-11.11,2.2-16.76,9.65-4.82,6.37-5.03,13.22-4.99,15.55v16.23c0,.56-.22,1.1-.59,1.51-2.8,3.09-6.17,7.86-7.84,14.35-.51,1.98-4.14,16.11,4.27,25.27,3.81,4.15,10.2,7.4,12.47,5.58,.36-.29,.55-.65,.62-1.09-.17-.38-.45-2.19-1.89-2.39Z" style="fill: #1b2785;"/>
    </g>
  </g>
  <g id="_03" data-name="003">
    <g>
      <polygon points="175.55 455.66 360.88 392.93 360.88 406.57 191.25 466.57 175.55 455.66" style="fill: #dbdbdb;"/>
      <path d="M181.29,396.88c1.23,.41,180.93-36.55,180.93-36.55v41.13l-180.93,65.1v-69.68Z" style="fill: #f0f0f0;"/>
      <path d="M169.94,348.09c3.73,.03,7.69,.09,11.38,.16,8.78,.17,16.22,6.5,17.79,15.13l15.18,83.5c1.52,8.35-2.86,16.66-10.61,20.12l-11.95,5.34c-3.85,1.72-8.17,2.07-12.25,.99l-16.29-4.32c-5.84-1.55-10.54-5.85-12.6-11.52l-7.78-21.43c-1.05-2.9-1.36-6.02-.9-9.08l9.66-63.26c1.38-9.06,9.21-15.73,18.37-15.65Z" style="fill: #8f8f8f;"/>
      <path d="M198.08,469.5c-3.85,1.72-8.17,2.07-12.25,.99l-16.29-4.32c-5.84-1.55-10.54-5.85-12.6-11.52l-7.78-21.43c-1.05-2.9-1.36-6.02-.9-9.08l9.66-63.26c.78-5.11,3.61-9.46,7.57-12.26-7.14,1.71-12.76,7.58-13.91,15.13l-9.66,63.26c-.47,3.05-.16,6.17,.9,9.08l7.78,21.43c2.06,5.67,6.77,9.98,12.6,11.52l16.29,4.32c4.08,1.08,8.4,.73,12.25-.99l11.95-5.34c.18-.08,.34-.17,.52-.26l-6.12,2.74Z" style="fill: #707070;"/>
      <path d="M168.72,354.77c4.29,.03,8.84,.09,13.08,.16,7.16,.12,13.54,3.36,17.28,8.31-1.62-8.57-9.03-14.83-17.76-15-3.69-.07-7.65-.13-11.38-.16-8.46-.07-15.77,5.61-17.93,13.61,3.94-4.29,10.01-6.98,16.71-6.93Z" style="fill: #adadad;"/>
      <rect x="227.47" y="369.2" width="8.59" height="44.05" rx="4.3" ry="4.3" style="fill: #a1a1a1;"/>
      <rect x="248.93" y="363.25" width="8.59" height="44.05" rx="4.3" ry="4.3" style="fill: #a1a1a1;"/>
    </g>
    <g>
      <polygon points="563.19 455.66 377.85 392.93 377.85 406.57 547.49 466.57 563.19 455.66" style="fill: #dbdbdb;"/>
      <path d="M557.44,396.88c-1.23,.41-180.93-36.55-180.93-36.55v41.13l180.93,65.1v-69.68Z" style="fill: #f0f0f0;"/>
      <path d="M568.79,348.09c-3.73,.03-7.69,.09-11.38,.16-8.78,.17-16.22,6.5-17.79,15.13l-15.18,83.5c-1.52,8.35,2.86,16.66,10.61,20.12l11.95,5.34c3.85,1.72,8.17,2.07,12.25,.99l16.29-4.32c5.84-1.55,10.54-5.85,12.6-11.52l7.78-21.43c1.05-2.9,1.36-6.02,.9-9.08l-9.66-63.26c-1.38-9.06-9.21-15.73-18.37-15.65Z" style="fill: #8f8f8f;"/>
      <path d="M540.65,469.5c3.85,1.72,8.17,2.07,12.25,.99l16.29-4.32c5.84-1.55,10.54-5.85,12.6-11.52l7.78-21.43c1.05-2.9,1.36-6.02,.9-9.08l-9.66-63.26c-.78-5.11-3.61-9.46-7.57-12.26,7.14,1.71,12.76,7.58,13.91,15.13l9.66,63.26c.47,3.05,.16,6.17-.9,9.08l-7.78,21.43c-2.06,5.67-6.77,9.98-12.6,11.52l-16.29,4.32c-4.08,1.08-8.4,.73-12.25-.99l-11.95-5.34c-.18-.08-.34-.17-.52-.26l6.12,2.74Z" style="fill: #a1a1a1;"/>
      <path d="M570.01,354.77c-4.29,.03-8.84,.09-13.08,.16-7.16,.12-13.54,3.36-17.28,8.31,1.62-8.57,9.03-14.83,17.76-15,3.69-.07,7.65-.13,11.38-.16,8.46-.07,15.77,5.61,17.93,13.61-3.94-4.29-10.01-6.98-16.71-6.93Z" style="fill: #adadad;"/>
      <rect x="502.68" y="369.2" width="8.59" height="44.05" rx="4.3" ry="4.3" transform="translate(1013.95 782.45) rotate(180)" style="fill: #a1a1a1;"/>
      <rect x="481.22" y="363.25" width="8.59" height="44.05" rx="4.3" ry="4.3" transform="translate(971.02 770.55) rotate(-180)" style="fill: #a1a1a1;"/>
    </g>
    <path d="M374.72,452.94c12.35,0,22.36-34.08,22.36-76.12s-10.01-76.12-22.36-76.12v152.23Z" style="fill: #f0f0f0;"/>
    <path d="M374.72,300.7c-12.35,0-22.36,34.08-22.36,76.12s10.01,76.12,22.36,76.12v-152.23Z" style="fill: #dbdbdb;"/>
    <path d="M374.72,418.61c6.78,0,12.28-18.71,12.28-41.79s-5.5-41.79-12.28-41.79v83.59Z" style="fill: #83deb7;"/>
    <path d="M374.72,335.03c-6.78,0-12.28,18.71-12.28,41.79s5.5,41.79,12.28,41.79v-83.59Z" style="fill: #77c9a6;"/>
  </g>
  <g id="_02" data-name="002">
    <rect x="315.33" y="363.5" width="103.84" height="30.81" style="fill: #b01715;"/>
    <rect x="317.41" y="322.09" width="103.84" height="30.81" style="fill: #b01715;"/>
    <g>
      <path d="M279.72,381.66c-1.65-.98-3.02-2.42-3.91-4.2l-16.98-33.96c-.71-1.41-1.07-2.97-1.07-4.55V205.48c0-5.62,4.55-10.17,10.17-10.17h5.2v134.03l6.59,52.32Z" style="fill: #a3a3a3;"/>
      <path d="M311.53,355.52l-.39-.63-18.57-30.04c-.94-1.52-1.47-3.27-1.52-5.06l-3.16-114.59c-.15-5.51-4.66-9.89-10.17-9.89h-4.59v134.03l6.59,52.32c1.53,.92,3.32,1.42,5.19,1.42h17.97c5.62,0,10.17-4.55,10.17-10.17v-12.04c0-1.89-.53-3.74-1.52-5.35Z" style="fill: #c4c4c4;"/>
      <path d="M308.75,286.77l-2.43,121.39c-6.68-.18-13.08-4.33-15.48-11.35l-22.93-66.81c-1.59-4.63-.33-9.77,3.23-13.14l29.67-28.12c2.23-2.11,5.25-2.72,7.94-1.97Z" style="fill: #b01715;"/>
      <path d="M331.98,328.59v58.39c0,3.9-1.81,7.58-4.91,9.96l-10.08,7.74c-3.23,2.49-7,3.59-10.67,3.48l2.43-121.39c2.01,.54,3.84,1.85,4.99,3.84l15.04,26.04c2.1,3.63,3.2,7.75,3.2,11.94Z" style="fill: #e01d1b;"/>
      <path d="M308.9,303.38l-2.08,93.41c-1.84-.26-3.53-1.47-4.26-3.44l-20.67-55.64c-1.83-4.91-.59-10.43,3.15-14.08l19.58-19.1c1.2-1.17,2.82-1.52,4.28-1.15Z" style="fill: #f0f0f0;"/>
      <path d="M326.46,379.08c.05,3.46-1.61,6.73-4.43,8.71l-10.8,7.6c-1.26,1.19-2.89,1.62-4.41,1.4l2.08-93.41c1.16,.3,2.22,1.06,2.86,2.23l12.72,23.28c.85,1.55,1.31,3.3,1.33,5.07l.65,45.12Z" style="fill: #fff;"/>
    </g>
    <g>
      <path d="M456.9,381.66c1.65-.98,3.02-2.42,3.91-4.2l16.98-33.96c.71-1.41,1.07-2.97,1.07-4.55V205.48c0-5.62-4.55-10.17-10.17-10.17h-5.2v134.03l-6.59,52.32Z" style="fill: #c4c4c4;"/>
      <path d="M425.09,355.52l.39-.63,18.57-30.04c.94-1.52,1.47-3.27,1.52-5.06l3.16-114.59c.15-5.51,4.66-9.89,10.17-9.89h4.59v134.03l-6.59,52.32c-1.53,.92-3.32,1.42-5.19,1.42h-17.97c-5.62,0-10.17-4.55-10.17-10.17v-12.04c0-1.89,.53-3.74,1.52-5.35Z" style="fill: #a3a3a3;"/>
      <path d="M427.87,286.77l2.43,121.39c6.68-.18,13.08-4.33,15.48-11.35l22.93-66.81c1.59-4.63,.33-9.77-3.23-13.14l-29.67-28.12c-2.23-2.11-5.25-2.72-7.94-1.97Z" style="fill: #e01d1b;"/>
      <path d="M404.64,328.59v58.39c0,3.9,1.81,7.58,4.91,9.96l10.08,7.74c3.23,2.49,7,3.59,10.67,3.48l-2.43-121.39c-2.01,.54-3.84,1.85-4.99,3.84l-15.04,26.04c-2.1,3.63-3.2,7.75-3.2,11.94Z" style="fill: #b01715;"/>
      <path d="M427.72,303.38l2.08,93.41c1.84-.26,3.53-1.47,4.26-3.44l20.67-55.64c1.83-4.91,.59-10.43-3.15-14.08l-19.58-19.1c-1.2-1.17-2.82-1.52-4.28-1.15Z" style="fill: #fff;"/>
      <path d="M410.16,379.08c-.05,3.46,1.61,6.73,4.43,8.71l10.8,7.6c1.26,1.19,2.89,1.62,4.41,1.4l-2.08-93.41c-1.16,.3-2.22,1.06-2.86,2.23l-12.72,23.28c-.85,1.55-1.31,3.3-1.33,5.07l-.65,45.12Z" style="fill: #f0f0f0;"/>
    </g>
  </g>
  <g id="_01" data-name="001">
    <path d="M385.91,252.22c-4.47-4.47-9.63-4.84-17.6-4.84s-13.13,.37-17.6,4.84c-4.47,4.47-15.48,74.25-15.48,93.61v87.55c0,22.09,7.64,35.32,16.09,35.32h33.97c8.45,0,16.09-13.23,16.09-35.32v-87.55c0-19.36-11.01-89.15-15.48-93.61Z" style="fill: #2131af;"/>
    <path d="M385.91,252.22l-.08-.08c-3.16-3.12-8.5-.27-7.78,4.12,2.54,15.39,4.68,30.85,6.4,46.35,1.02,9.17,1.89,18.36,2.62,27.56s1.31,18.41,1.75,27.63c.22,4.61,.4,9.22,.55,13.83,.29,9.23,.44,18.45,.45,27.68,.01,23.07-.88,46.15-2.68,69.16,7.69-1.77,14.25-14.63,14.25-35.1v-87.55c0-19.36-11.02-89.15-15.48-93.61Z" style="fill: #3849c9;"/>
    <path d="M350.28,448.99c-3.23-5.75-3.34-12.68-3.32-19.27,.2-58.8-1.89-118.6,12.27-175.89,.76-3.09-2.54-5.66-5.31-4.09-1.13,.64-2.19,1.45-3.22,2.47-4.47,4.47-15.48,74.25-15.48,93.61v87.55c0,22.09,7.64,35.32,16.09,35.32h33.97c.47,0,.94-.04,1.41-.12,4.92-.87,3.62-8.32-1.33-7.71-1.11,.14-2.21,.26-3.32,.35-11.96,1.05-25.9-1.74-31.77-12.22Z" style="fill: #1b2785;"/>
    <path d="M379.77,338.88h-24.02c-4.72,0-8.39-4.11-7.86-8.8l5.84-51.55c.45-4,3.83-7.02,7.86-7.02h12.33c4.02,0,7.4,3.02,7.86,7.02l5.84,51.55c.53,4.69-3.14,8.8-7.86,8.8Z" style="fill: #83deb7;"/>
    <path d="M410.51,373.38h7.44c10.42,0,18.89,8.46,18.89,18.89v87.91c0,6.23-5.06,11.29-11.29,11.29h-14.19c-5.5,0-9.97-4.47-9.97-9.97v-99c0-5.04,4.09-9.13,9.13-9.13Z" style="fill: #2131af;"/>
    <path d="M410.72,474.42c-.93-33.34-.64-67.5,.07-101.05h-.29c-5.04,0-9.13,4.09-9.13,9.13v99c0,5.51,4.46,9.97,9.97,9.97h1.44c-2.09-5.78-1.91-11.26-2.07-17.05Z" style="fill: #1b2785;"/>
    <path d="M425.66,375.03c4.08,20.23,2.04,76.28,2.94,116,4.75-1.34,8.23-5.69,8.23-10.86v-87.91c0-7.68-4.59-14.28-11.18-17.23Z" style="fill: #3849c9;"/>
    <path d="M436.58,485.45c.88-1.45-.63-3.24-2.07-2.46-2.51,1.35-5.11,2.25-8.95,3.04-4.8,.98-14.26,.06-19.02-1.14-.97-.24-1.92-.6-2.84-1.07-1.46-.74-2.94,1.04-2.04,2.48,1.95,3.12,5.28,5.17,9.06,5.17h15.5c4.35,0,8.16-2.4,10.36-6.02Z" style="fill: #f5c60c;"/>
    <path d="M309.75,373.38h14.19c6.23,0,11.29,5.06,11.29,11.29v87.91c0,10.42-8.46,18.89-18.89,18.89h-7.44c-5.04,0-9.13-4.09-9.13-9.13v-99c0-5.5,4.47-9.97,9.97-9.97Z" transform="translate(635.01 864.84) rotate(180)" style="fill: #2131af;"/>
    <path d="M325.9,474.42c.93-33.34,.64-67.5-.07-101.05h.29c5.04,0,9.13,4.09,9.13,9.13v99c0,5.51-4.46,9.97-9.97,9.97h-1.44c2.09-5.78,1.91-11.26,2.07-17.05Z" style="fill: #3849c9;"/>
    <path d="M310.96,375.03c-4.08,20.23-2.04,76.28-2.94,116-4.75-1.34-8.23-5.69-8.23-10.86v-87.91c0-7.68,4.59-14.28,11.18-17.23Z" style="fill: #1b2785;"/>
    <path d="M300.04,485.45c-.88-1.45,.63-3.24,2.07-2.46,2.51,1.35,5.11,2.25,8.95,3.04,4.8,.98,14.26,.06,19.02-1.14,.97-.24,1.92-.6,2.84-1.07,1.46-.74,2.94,1.04,2.04,2.48-1.95,3.12-5.28,5.17-9.06,5.17h-15.5c-4.35,0-8.16-2.4-10.36-6.02Z" style="fill: #f5c60c;"/>
    <path d="M299.81,402.14l-35.86-24.88c-3.1-2.15-6.92-1.43-9.42,1.76l-11.4,14.61c-1.75,2.25-1.56,5.97,.41,7.9l47.1,46.18c3.82,3.75,6.97,8.52,9.23,13.98l.51,1.25c.79,1.92,3.05,1.18,3.04-.99l-.19-52.48c-.01-3.06-1.32-5.88-3.41-7.33Z" style="fill: #dedede;"/>
    <path d="M303.41,461.95l-.04-12.13c-1.39-1.61-2.94-3.04-4.47-4.43-18.25-16.58-36.5-33.15-54.75-49.73-.88-.8-2.12-.06-2.2,1.32-.1,1.69,.44,3.43,1.59,4.55l47.1,46.18c3.82,3.75,6.97,8.52,9.23,13.98l.51,1.25c.79,1.92,3.05,1.18,3.04-.99Z" style="fill: #c7c7c7;"/>
    <path d="M435.72,402.14l35.86-24.88c3.1-2.15,6.92-1.43,9.42,1.76l11.4,14.61c1.75,2.25,1.56,5.97-.41,7.9l-47.1,46.18c-3.82,3.75-6.97,8.52-9.23,13.98l-.51,1.25c-.79,1.92-3.05,1.18-3.04-.99l.19-52.48c.01-3.06,1.32-5.88,3.41-7.33Z" style="fill: #dedede;"/>
    <path d="M432.11,461.95l.04-12.13c1.39-1.61,2.94-3.04,4.47-4.43,18.25-16.58,36.5-33.15,54.75-49.73,.88-.8,2.12-.06,2.2,1.32,.1,1.69-.44,3.43-1.59,4.55l-47.1,46.18c-3.82,3.75-6.97,8.52-9.23,13.98l-.51,1.25c-.79,1.92-3.05,1.18-3.04-.99Z" style="fill: #c7c7c7;"/>
  </g>
</svg>