<?xml version="1.0" encoding="UTF-8"?><svg id="Layer_1" xmlns="http://www.w3.org/2000/svg" viewBox="0 0 251.67 244.09"><defs><style>.cls-1{fill:#f5c60c;}.cls-2{fill:#83deb7;}.cls-3{fill:#c7c7c7;}.cls-4{fill:#dedede;}.cls-5{fill:#2131af;}.cls-6{fill:#1b2785;}.cls-7{fill:#3849c9;}</style></defs><path class="cls-5" d="M143.98,4.84c-4.47-4.47-9.63-4.84-17.6-4.84s-13.13,.37-17.6,4.84c-4.47,4.47-15.48,74.25-15.48,93.61v87.55c0,22.09,7.64,35.32,16.09,35.32h33.97c8.45,0,16.09-13.23,16.09-35.32V98.45c0-19.36-11.01-89.15-15.48-93.61Z"/><path class="cls-7" d="M143.98,4.84l-.08-.08c-3.16-3.12-8.5-.27-7.78,4.12,2.54,15.39,4.68,30.85,6.4,46.35,1.02,9.17,1.89,18.36,2.62,27.56s1.31,18.41,1.75,27.63c.22,4.61,.4,9.22,.55,13.83,.29,9.23,.44,18.45,.45,27.68,.01,23.07-.88,46.15-2.68,69.16,7.69-1.77,14.25-14.63,14.25-35.1V98.45c0-19.36-11.02-89.15-15.48-93.61Z"/><path class="cls-6" d="M108.36,201.62c-3.23-5.75-3.34-12.68-3.32-19.27,.2-58.8-1.89-118.6,12.27-175.89,.76-3.09-2.54-5.66-5.31-4.09-1.13,.64-2.19,1.45-3.22,2.47-4.47,4.47-15.48,74.25-15.48,93.61v87.55c0,22.09,7.64,35.32,16.09,35.32h33.97c.47,0,.94-.04,1.41-.12,4.92-.87,3.62-8.32-1.33-7.71-1.11,.14-2.21,.26-3.32,.35-11.96,1.05-25.9-1.74-31.77-12.22Z"/><path class="cls-2" d="M137.85,91.5h-24.02c-4.72,0-8.39-4.11-7.86-8.8l5.84-51.55c.45-4,3.83-7.02,7.86-7.02h12.33c4.02,0,7.4,3.02,7.86,7.02l5.84,51.55c.53,4.69-3.14,8.8-7.86,8.8Z"/><path class="cls-5" d="M168.59,126h7.44c10.42,0,18.89,8.46,18.89,18.89v87.91c0,6.23-5.06,11.29-11.29,11.29h-14.19c-5.5,0-9.97-4.47-9.97-9.97v-99c0-5.04,4.09-9.13,9.13-9.13Z"/><path class="cls-6" d="M168.8,227.04c-.93-33.34-.64-67.5,.07-101.05h-.29c-5.04,0-9.13,4.09-9.13,9.13v99c0,5.51,4.46,9.97,9.97,9.97h1.44c-2.09-5.78-1.91-11.26-2.07-17.05Z"/><path class="cls-7" d="M183.74,127.66c4.08,20.23,2.04,76.28,2.94,116,4.75-1.34,8.23-5.69,8.23-10.86v-87.91c0-7.68-4.59-14.28-11.18-17.23Z"/><path class="cls-1" d="M194.66,238.07c.88-1.45-.63-3.24-2.07-2.46-2.51,1.35-5.11,2.25-8.95,3.04-4.8,.98-14.26,.06-19.02-1.14-.97-.24-1.92-.6-2.84-1.07-1.46-.74-2.94,1.04-2.04,2.48,1.95,3.12,5.28,5.17,9.06,5.17h15.5c4.35,0,8.16-2.4,10.36-6.02Z"/><path class="cls-5" d="M67.82,126h14.19c6.23,0,11.29,5.06,11.29,11.29v87.91c0,10.42-8.46,18.89-18.89,18.89h-7.44c-5.04,0-9.13-4.09-9.13-9.13v-99c0-5.5,4.47-9.97,9.97-9.97Z" transform="translate(151.16 370.09) rotate(180)"/><path class="cls-7" d="M83.97,227.04c.93-33.34,.64-67.5-.07-101.05h.29c5.04,0,9.13,4.09,9.13,9.13v99c0,5.51-4.46,9.97-9.97,9.97h-1.44c2.09-5.78,1.91-11.26,2.07-17.05Z"/><path class="cls-6" d="M69.03,127.66c-4.08,20.23-2.04,76.28-2.94,116-4.75-1.34-8.23-5.69-8.23-10.86v-87.91c0-7.68,4.59-14.28,11.18-17.23Z"/><path class="cls-1" d="M58.11,238.07c-.88-1.45,.63-3.24,2.07-2.46,2.51,1.35,5.11,2.25,8.95,3.04,4.8,.98,14.26,.06,19.02-1.14,.97-.24,1.92-.6,2.84-1.07,1.46-.74,2.94,1.04,2.04,2.48-1.95,3.12-5.28,5.17-9.06,5.17h-15.5c-4.35,0-8.16-2.4-10.36-6.02Z"/><path class="cls-4" d="M57.88,154.76l-35.86-24.88c-3.1-2.15-6.92-1.43-9.42,1.76l-11.4,14.61c-1.75,2.25-1.56,5.97,.41,7.9l47.1,46.18c3.82,3.75,6.97,8.52,9.23,13.98l.51,1.25c.79,1.92,3.05,1.18,3.04-.99l-.19-52.48c-.01-3.06-1.32-5.88-3.41-7.33Z"/><path class="cls-3" d="M61.49,214.57l-.04-12.13c-1.39-1.61-2.94-3.04-4.47-4.43-18.25-16.58-36.5-33.15-54.75-49.73-.88-.8-2.12-.06-2.2,1.32-.1,1.69,.44,3.43,1.59,4.55l47.1,46.18c3.82,3.75,6.97,8.52,9.23,13.98l.51,1.25c.79,1.92,3.05,1.18,3.04-.99Z"/><path class="cls-4" d="M193.79,154.76l35.86-24.88c3.1-2.15,6.92-1.43,9.42,1.76l11.4,14.61c1.75,2.25,1.56,5.97-.41,7.9l-47.1,46.18c-3.82,3.75-6.97,8.52-9.23,13.98l-.51,1.25c-.79,1.92-3.05,1.18-3.04-.99l.19-52.48c.01-3.06,1.32-5.88,3.41-7.33Z"/><path class="cls-3" d="M190.19,214.57l.04-12.13c1.39-1.61,2.94-3.04,4.47-4.43,18.25-16.58,36.5-33.15,54.75-49.73,.88-.8,2.12-.06,2.2,1.32,.1,1.69-.44,3.43-1.59,4.55l-47.1,46.18c-3.82,3.75-6.97,8.52-9.23,13.98l-.51,1.25c-.79,1.92-3.05,1.18-3.04-.99Z"/></svg>