<?xml version="1.0" encoding="utf-8"?>
<!-- Generator: Adobe Illustrator 26.4.0, SVG Export Plug-In . SVG Version: 6.00 Build 0)  -->
<svg version="1.1" id="orange-planet" xmlns="http://www.w3.org/2000/svg" xmlns:xlink="http://www.w3.org/1999/xlink" x="0px"
	 y="0px" viewBox="0 0 206 139.7" style="enable-background:new 0 0 206 139.7;" xml:space="preserve">
<style type="text/css">
	.st0{fill:#FF8055;}
	.st1{fill:#FF9755;}
	.st2{opacity:0.11;fill:#663322;enable-background:new    ;}
	.st3{opacity:0.21;fill:none;stroke:#FFFFFF;stroke-width:7;stroke-linecap:round;stroke-miterlimit:10;enable-background:new    ;}
	.st4{fill:#91B6FF;}
</style>
<g id="orange-planet-2">
	<path class="st0" d="M156.9,114.2c-0.3,0.4-0.7,0.8-1,1.2c-4.9,5.8-10.6,10.5-16.8,14.2c-5.6,3.4-11.7,6-18,7.6
		c-21,5.6-44.4,1.4-62.5-13.5c-18.1-14.9-26.8-37-25.3-58.7c0.4-6.5,1.8-12.9,4-19.1c2.5-6.8,6-13.3,10.7-19.3
		c0.3-0.4,0.6-0.8,1-1.2c2-2.4,4.1-4.6,6.3-6.7c0.9-0.8,1.8-1.7,2.8-2.4c7.1-5.9,15.1-10.3,23.6-13c21.8-7,46.6-3.1,65.6,12.6
		s27.6,39.2,25,62c-1,8.9-3.7,17.6-8.2,25.7c-0.6,1.1-1.2,2.1-1.9,3.2C160.7,109.3,158.9,111.8,156.9,114.2L156.9,114.2z"/>
	<path class="st1" d="M164.2,103.6L58.1,16.3c7.1-5.9,15.1-10.3,23.6-13l90.6,74.6C171.4,86.7,168.7,95.5,164.2,103.6z"/>
	<path class="st1" d="M156.9,114.2c-0.3,0.4-0.7,0.8-1,1.2L48.1,26.7c0.3-0.4,0.6-0.8,1-1.2c2-2.4,4.1-4.6,6.3-6.7l107,88
		C160.7,109.3,158.9,111.8,156.9,114.2L156.9,114.2z"/>
	<path class="st1" d="M139.1,129.7c-5.6,3.4-11.7,6-18,7.6L33.3,65.1c0.4-6.5,1.8-12.9,4-19.1L139.1,129.7L139.1,129.7z"/>
	<path class="st2" d="M172.4,77.9c-1,8.9-3.7,17.6-8.2,25.7c-0.6,1.1-1.2,2.1-1.9,3.2c-1.6,2.6-3.4,5.1-5.4,7.5
		c-0.3,0.4-0.7,0.8-1,1.2c-4.9,5.8-10.6,10.5-16.8,14.2c-5.6,3.4-11.7,6-18,7.6c-21,5.6-44.4,1.4-62.5-13.5
		c-3.8-3.1-7.2-6.6-10.2-10.3c16.5,9.9,36,12.2,53.8,7.4c6.3-1.7,12.3-4.2,18-7.6c6.2-3.7,11.9-8.5,16.8-14.2c0.3-0.4,0.7-0.8,1-1.2
		c2-2.4,3.8-4.9,5.4-7.5c0.7-1.1,1.3-2.1,1.9-3.2c4.5-8.1,7.2-16.8,8.2-25.7c2.1-18.2-3-36.9-14.8-51.7c3,1.8,5.9,3.8,8.7,6.1
		C166.4,31.6,175,55.1,172.4,77.9L172.4,77.9z"/>
	<path class="st3" d="M104.8,8c-6.1,1.1-18.5,4.3-30.7,14.1c-11.8,9.4-17.5,20.3-20,26"/>
	<path class="st4" d="M6.9,138.8c-2.8,0-4.8-0.9-6.1-3.1c-2.7-4.7,1.5-9.6,9.7-16.5c6.4-5.4,16.7-12.9,28.6-20.9l4.4,8.3
		c-14.9,10-23.1,16.5-27.9,20.6c6.2-2.2,16.5-6.4,33.4-14.8c17.1-8.4,36.7-19,56.9-30.7c22.6-13,44.1-26.5,60.7-37.8
		c12.1-8.3,19.4-13.9,23.8-17.7c-5.2,1.8-13.1,5-25.6,11l-4.9-7.9c11.4-5.4,21.2-9.8,28.1-12.2c7.1-2.4,14.3-4.4,17.2,0.6
		c2.9,5-2.6,10.4-8.4,15.4c-5.7,4.9-14,11.1-24.8,18.5c-16.8,11.5-38.6,25-61.3,38.2c-20.3,11.7-40.2,22.4-57.4,31
		c-13.3,6.6-24.6,11.6-32.8,14.6C14.8,137.5,10.3,138.8,6.9,138.8z"/>
</g>
</svg>
