<?xml version="1.0" encoding="utf-8"?>
<!-- Generator: Adobe Illustrator 26.4.0, SVG Export Plug-In . SVG Version: 6.00 Build 0)  -->
<svg version="1.1" id="purple-planet" xmlns="http://www.w3.org/2000/svg" xmlns:xlink="http://www.w3.org/1999/xlink" x="0px"
	 y="0px" viewBox="0 0 220 220" style="enable-background:new 0 0 220 220;" xml:space="preserve">
<style type="text/css">
	.st0{opacity:0.5;fill:url(#SVGID_1_);enable-background:new    ;}
	.st1{fill:#9B1CF0;}
	.st2{fill:#8C19D9;}
	.st3{opacity:0.68;fill:#DCF6F7;enable-background:new    ;}
</style>
<g id="purple-planet-2">
	
		<radialGradient id="SVGID_1_" cx="110.02" cy="578.02" r="110.02" gradientTransform="matrix(1 0 0 1 0 -468)" gradientUnits="userSpaceOnUse">
		<stop  offset="0" style="stop-color:#FFFFFF;stop-opacity:0"/>
		<stop  offset="0.33" style="stop-color:#FDFCFF;stop-opacity:0.2"/>
		<stop  offset="0.55" style="stop-color:#F8F3FF;stop-opacity:0.33"/>
		<stop  offset="0.73" style="stop-color:#F0E4FF;stop-opacity:0.44"/>
		<stop  offset="0.9" style="stop-color:#E3CFFF;stop-opacity:0.54"/>
		<stop  offset="1" style="stop-color:#DABFFF;stop-opacity:0.6"/>
	</radialGradient>
	<path class="st0" d="M220,110c0,41.1-22.5,76.9-55.9,95.8c-11.6,6.6-24.4,11.1-38.1,13c-2,0.3-4,0.5-6,0.7c-3.3,0.3-6.6,0.5-10,0.5
		c-1.1,0-2.3,0-3.4-0.1c-1.7,0-3.4-0.1-5-0.3C44.8,215.4,0,167.9,0,110S47.4,1.9,106.6,0.1c1.1,0,2.3-0.1,3.4-0.1c0.8,0,1.6,0,2.4,0
		c5.8,0.1,11.4,0.7,16.9,1.7c1.9,0.3,3.7,0.7,5.6,1.1c47.6,11,83.4,52.9,85.1,103.5C220,107.6,220,108.8,220,110L220,110z"/>
	<path class="st1" d="M191.2,111c0,30.7-16.8,57.5-41.8,71.6c-8.6,4.9-18.2,8.3-28.4,9.8c-1.5,0.2-3,0.4-4.5,0.5
		c-2.5,0.2-4.9,0.3-7.5,0.3c-0.9,0-1.7,0-2.6,0c-44.2-1.4-79.6-37.6-79.6-82.1s35.4-80.7,79.6-82.1c0.9,0,1.7,0,2.6,0
		c0.6,0,1.2,0,1.8,0c4.3,0.1,8.5,0.5,12.6,1.2c1.4,0.2,2.8,0.5,4.2,0.8C164,39.4,191.2,72,191.2,111L191.2,111z"/>
	<path class="st2" d="M108.1,188c0.6,0.6,0.9,1.3,0.9,2.1c0,1.5-1.1,2.8-2.6,3c-44.2-1.4-79.6-37.6-79.6-82.1s35.4-80.7,79.6-82.1
		c1.5,0.2,2.6,1.5,2.6,3c0,1.7-1.4,3-3,3H82.4c-0.8,0-1.6,0.3-2.2,0.9c-0.6,0.6-0.9,1.3-0.9,2.2c0,1.7,1.4,3,3,3h15.5
		c0.8,0,1.6,0.3,2.1,0.9c0.6,0.6,0.9,1.3,0.9,2.2c0,1.7-1.4,3-3,3H74.5c-0.8,0-1.6,0.3-2.2,0.9c-0.6,0.6-0.9,1.3-0.9,2.2
		c0,1.7,1.4,3,3,3h9.8c0.8,0,1.6,0.3,2.2,0.9c0.6,0.6,0.9,1.3,0.9,2.2c0,1.7-1.3,3-3,3H64.2c-0.8,0-1.6,0.3-2.2,0.9
		c-0.6,0.6-0.9,1.3-0.9,2.2c0,1.7,1.4,3,3,3h26.3c0.8,0,1.6,0.3,2.1,0.9c0.6,0.6,0.9,1.3,0.9,2.2c0,1.7-1.4,3-3,3H69.8
		c-0.8,0-1.6,0.3-2.2,0.9c-0.6,0.6-0.9,1.3-0.9,2.2c0,1.7,1.4,3,3,3h9.8c0.8,0,1.6,0.3,2.2,0.9c0.6,0.6,0.9,1.3,0.9,2.2
		c0,1.7-1.4,3-3,3h-5.1c-0.8,0-1.6,0.3-2.2,0.9c-0.6,0.6-0.9,1.3-0.9,2.1c0,1.7,1.4,3,3,3H82c0.8,0,1.6,0.3,2.2,0.9
		c0.6,0.6,0.9,1.3,0.9,2.1c0,1.7-1.4,3-3,3H57.7c-0.8,0-1.6,0.3-2.2,0.9c-0.6,0.6-0.9,1.3-0.9,2.1c0,1.7,1.4,3,3,3h17
		c0.8,0,1.6,0.3,2.2,0.9c0.6,0.6,0.9,1.3,0.9,2.1c0,1.7-1.4,3-3,3h-1.5c-0.8,0-1.6,0.3-2.2,0.9c-0.6,0.6-0.9,1.3-0.9,2.1
		c0,1.7,1.4,3,3,3h6.5c0.8,0,1.6,0.3,2.2,0.9c0.6,0.6,0.9,1.3,0.9,2.1c0,1.7-1.4,3-3,3H53.5c-0.8,0-1.6,0.3-2.2,0.9
		c-0.6,0.6-0.9,1.3-0.9,2.1c0,1.7,1.4,3,3,3h39.7c0.8,0,1.6,0.3,2.1,0.9c0.6,0.6,0.9,1.3,0.9,2.1c0,1.7-1.4,3-3,3H58.6
		c-0.8,0-1.6,0.3-2.2,0.9c-0.6,0.6-0.9,1.3-0.9,2.1c0,1.7,1.4,3,3,3h17.7c0.8,0,1.6,0.3,2.2,0.9c0.6,0.6,0.9,1.3,0.9,2.1
		c0,1.7-1.4,3-3,3H62.2c-0.8,0-1.6,0.3-2.2,0.9s-0.9,1.3-0.9,2.1c0,1.7,1.3,3,3,3h34.5c0.8,0,1.6,0.3,2.1,0.9
		c0.6,0.6,0.9,1.3,0.9,2.1c0,1.7-1.4,3-3,3h-13c-0.8,0-1.6,0.3-2.2,0.9c-0.6,0.6-0.9,1.3-0.9,2.1c0,1.7,1.4,3,3,3h4.9
		c0.8,0,1.6,0.3,2.1,0.9c0.6,0.6,0.9,1.3,0.9,2.1c0,1.7-1.4,3-3,3H76.8c-0.8,0-1.6,0.3-2.2,0.9c-0.6,0.6-0.9,1.3-0.9,2.1
		c0,1.7,1.4,3,3,3h16.4c0.8,0,1.6,0.3,2.1,0.9c0.6,0.6,0.9,1.3,0.9,2.1c0,1.7-1.4,3-3,3h-2.9c-0.8,0-1.6,0.3-2.1,0.9
		c-0.6,0.6-0.9,1.3-0.9,2.1c0,1.7,1.4,3,3,3H106C106.8,187.1,107.6,187.4,108.1,188L108.1,188z"/>
	<path class="st3" d="M191.2,111c0,30.7-16.8,57.5-41.8,71.6c-8.6,4.9-18.2,8.3-28.4,9.8c-1.5,0.2-3,0.4-4.5,0.5
		c-0.3-0.1-0.6-0.3-0.8-0.6c-0.6-0.6-0.9-1.3-0.9-2.1c0-1.7,1.4-3,3-3h10.3c0.8,0,1.6-0.3,2.1-0.9c0.6-0.6,0.9-1.3,0.9-2.1
		c0-1.7-1.4-3-3-3h-4.9c-0.8,0-1.6-0.3-2.1-0.9c-0.6-0.6-0.9-1.3-0.9-2.1c0-1.7,1.4-3,3-3h26.1c0.8,0,1.6-0.3,2.1-0.9
		c0.6-0.6,0.9-1.3,0.9-2.1c0-1.7-1.4-3-3-3h-9.8c-0.8,0-1.6-0.3-2.1-0.9c-0.6-0.6-0.9-1.3-0.9-2.1c0-1.7,1.4-3,3-3h20.1
		c0.8,0,1.6-0.3,2.1-0.9c0.6-0.6,0.9-1.3,0.9-2.1c0-1.7-1.4-3-3-3h-26.3c-0.8,0-1.6-0.3-2.1-0.9c-0.6-0.6-0.9-1.3-0.9-2.1
		c0-1.7,1.4-3,3-3h20.7c0.8,0,1.6-0.3,2.1-0.9c0.6-0.6,0.9-1.3,0.9-2.1c0-1.7-1.4-3-3-3h-9.8c-0.8,0-1.6-0.3-2.1-0.9
		c-0.6-0.6-0.9-1.3-0.9-2.1c0-1.7,1.4-3,3-3h5.1c0.8,0,1.6-0.3,2.1-0.9c0.6-0.6,0.9-1.3,0.9-2.1c0-1.7-1.4-3-3-3h-7.5
		c-0.8,0-1.6-0.3-2.1-0.9c-0.6-0.6-0.9-1.3-0.9-2.1c0-1.7,1.4-3,3-3h24.4c0.8,0,1.6-0.3,2.1-0.9c0.6-0.6,0.9-1.3,0.9-2.1
		c0-1.7-1.4-3-3-3h-15.1c-0.8,0-1.6-0.3-2.1-0.9c-0.6-0.6-0.9-1.3-0.9-2.1c0-1.7,1.4-3,3-3h14.1c0.8,0,1.6-0.3,2.1-0.9
		c0.6-0.6,0.9-1.3,0.9-2.1c0-1.7-1.4-3-3-3h-25.6c-0.8,0-1.6-0.3-2.1-0.9c-0.6-0.6-0.9-1.3-0.9-2.1c0-1.7,1.4-3,3-3h30.8
		c0.8,0,1.6-0.3,2.1-0.9c0.6-0.6,0.9-1.3,0.9-2.1c0-1.7-1.4-3-3-3h-17.9c-0.8,0-1.6-0.3-2.1-0.9c-0.6-0.6-0.9-1.3-0.9-2.1
		c0-1.7,1.4-3,3-3h12.8c0.8,0,1.6-0.3,2.1-0.9c0.6-0.6,0.9-1.3,0.9-2.2c0-1.7-1.4-3-3-3h-42.6c-0.8,0-1.6-0.3-2.1-0.9
		c-0.6-0.6-0.9-1.3-0.9-2.1c0-1.7,1.4-3,3-3h39c0.8,0,1.6-0.3,2.1-0.9c0.6-0.6,0.9-1.3,0.9-2.1c0-1.7-1.4-3-3-3h-27.4
		c-0.8,0-1.6-0.3-2.1-0.9c-0.6-0.6-0.9-1.3-0.9-2.1c0-1.7,1.4-3,3-3h11.6c0.8,0,1.6-0.3,2.1-0.9c0.6-0.6,0.9-1.3,0.9-2.2
		c0-1.7-1.4-3-3-3h-4c-0.8,0-1.6-0.3-2.1-0.9c-0.6-0.6-0.9-1.3-0.9-2.2c0-1.7,1.4-3,3-3h5.2c0.8,0,1.6-0.3,2.1-0.9
		c0.6-0.6,0.9-1.3,0.9-2.2c0-1.7-1.4-3-3-3h-32.8c-0.8,0-1.6-0.3-2.1-0.9c-0.6-0.6-0.9-1.3-0.9-2.2c0-1.7,1.4-3,3-3h19.3
		c0.8,0,1.6-0.3,2.1-0.9c0.6-0.6,0.9-1.3,0.9-2.2c0-1.7-1.4-3-3-3h-7.6c-1.7,0-3-1.4-3-3c0-0.7,0.2-1.3,0.6-1.8
		c1.4,0.2,2.8,0.5,4.2,0.8C164,39.4,191.2,72,191.2,111L191.2,111z"/>
</g>
</svg>
